<svg width="8" height="11" viewBox="0 0 8 11" fill="none" xmlns="http://www.w3.org/2000/svg">
<path d="M3.05169 6.56576C3.05169 6.08042 3.15903 5.67909 3.37369 5.36176C3.59769 5.04442 3.91969 4.69442 4.33969 4.31176C4.6477 4.03176 4.8717 3.79842 5.0117 3.61176C5.16103 3.41576 5.2357 3.19642 5.2357 2.95376C5.2357 2.60842 5.0957 2.33776 4.8157 2.14176C4.54503 1.93642 4.18103 1.83376 3.7237 1.83376C3.28503 1.83376 2.89303 1.92709 2.54769 2.11376C2.21169 2.29109 1.92703 2.54309 1.69369 2.86976L-0.000305176 1.87576C0.391695 1.27842 0.919028 0.816422 1.58169 0.489755C2.2537 0.163089 3.04703 -0.000244141 3.96169 -0.000244141C5.03503 -0.000244141 5.89369 0.228422 6.53769 0.685755C7.19103 1.14309 7.51769 1.77776 7.51769 2.58976C7.51769 2.97242 7.45236 3.30842 7.32169 3.59776C7.20036 3.88709 7.04636 4.13442 6.85969 4.33976C6.68236 4.53576 6.44903 4.76442 6.1597 5.02576C5.81436 5.33376 5.56236 5.59509 5.4037 5.80976C5.24503 6.01509 5.1657 6.26709 5.1657 6.56576H3.05169ZM4.11569 10.0798C3.73303 10.0798 3.41103 9.95842 3.14969 9.71576C2.8977 9.46376 2.77169 9.16042 2.77169 8.80576C2.77169 8.45109 2.8977 8.15709 3.14969 7.92376C3.4017 7.68109 3.7237 7.55976 4.11569 7.55976C4.5077 7.55976 4.82969 7.68109 5.0817 7.92376C5.3337 8.15709 5.4597 8.45109 5.4597 8.80576C5.4597 9.16042 5.32903 9.46376 5.0677 9.71576C4.81569 9.95842 4.49836 10.0798 4.11569 10.0798Z" fill="#ACB8CA"/>
<path d="M3.05169 6.56576C3.05169 6.08042 3.15903 5.67909 3.37369 5.36176C3.59769 5.04442 3.91969 4.69442 4.33969 4.31176C4.6477 4.03176 4.8717 3.79842 5.0117 3.61176C5.16103 3.41576 5.2357 3.19642 5.2357 2.95376C5.2357 2.60842 5.0957 2.33776 4.8157 2.14176C4.54503 1.93642 4.18103 1.83376 3.7237 1.83376C3.28503 1.83376 2.89303 1.92709 2.54769 2.11376C2.21169 2.29109 1.92703 2.54309 1.69369 2.86976L-0.000305176 1.87576C0.391695 1.27842 0.919028 0.816422 1.58169 0.489755C2.2537 0.163089 3.04703 -0.000244141 3.96169 -0.000244141C5.03503 -0.000244141 5.89369 0.228422 6.53769 0.685755C7.19103 1.14309 7.51769 1.77776 7.51769 2.58976C7.51769 2.97242 7.45236 3.30842 7.32169 3.59776C7.20036 3.88709 7.04636 4.13442 6.85969 4.33976C6.68236 4.53576 6.44903 4.76442 6.1597 5.02576C5.81436 5.33376 5.56236 5.59509 5.4037 5.80976C5.24503 6.01509 5.1657 6.26709 5.1657 6.56576H3.05169ZM4.11569 10.0798C3.73303 10.0798 3.41103 9.95842 3.14969 9.71576C2.8977 9.46376 2.77169 9.16042 2.77169 8.80576C2.77169 8.45109 2.8977 8.15709 3.14969 7.92376C3.4017 7.68109 3.7237 7.55976 4.11569 7.55976C4.5077 7.55976 4.82969 7.68109 5.0817 7.92376C5.3337 8.15709 5.4597 8.45109 5.4597 8.80576C5.4597 9.16042 5.32903 9.46376 5.0677 9.71576C4.81569 9.95842 4.49836 10.0798 4.11569 10.0798Z" fill="#909EB7"/>
<path d="M3.05169 6.56576C3.05169 6.08042 3.15903 5.67909 3.37369 5.36176C3.59769 5.04442 3.91969 4.69442 4.33969 4.31176C4.6477 4.03176 4.8717 3.79842 5.0117 3.61176C5.16103 3.41576 5.2357 3.19642 5.2357 2.95376C5.2357 2.60842 5.0957 2.33776 4.8157 2.14176C4.54503 1.93642 4.18103 1.83376 3.7237 1.83376C3.28503 1.83376 2.89303 1.92709 2.54769 2.11376C2.21169 2.29109 1.92703 2.54309 1.69369 2.86976L-0.000305176 1.87576C0.391695 1.27842 0.919028 0.816422 1.58169 0.489755C2.2537 0.163089 3.04703 -0.000244141 3.96169 -0.000244141C5.03503 -0.000244141 5.89369 0.228422 6.53769 0.685755C7.19103 1.14309 7.51769 1.77776 7.51769 2.58976C7.51769 2.97242 7.45236 3.30842 7.32169 3.59776C7.20036 3.88709 7.04636 4.13442 6.85969 4.33976C6.68236 4.53576 6.44903 4.76442 6.1597 5.02576C5.81436 5.33376 5.56236 5.59509 5.4037 5.80976C5.24503 6.01509 5.1657 6.26709 5.1657 6.56576H3.05169ZM4.11569 10.0798C3.73303 10.0798 3.41103 9.95842 3.14969 9.71576C2.8977 9.46376 2.77169 9.16042 2.77169 8.80576C2.77169 8.45109 2.8977 8.15709 3.14969 7.92376C3.4017 7.68109 3.7237 7.55976 4.11569 7.55976C4.5077 7.55976 4.82969 7.68109 5.0817 7.92376C5.3337 8.15709 5.4597 8.45109 5.4597 8.80576C5.4597 9.16042 5.32903 9.46376 5.0677 9.71576C4.81569 9.95842 4.49836 10.0798 4.11569 10.0798Z" fill="#9A9A9A"/>
</svg>
